REM MD5 98ebfb10f72dbf73df172bcd8ba95019
FILE "Lifeforce Tenka (Europe) (Demo).bin" BINARY
  TRACK 01 MODE2/2352
    INDEX 01 00:00:00
  TRACK 02 AUDIO
    INDEX 00 01:52:38
    INDEX 01 01:54:38
  TRACK 03 AUDIO
    INDEX 00 05:36:04
    INDEX 01 05:38:04
  TRACK 04 AUDIO
    INDEX 00 09:12:54
    INDEX 01 09:14:54
  TRACK 05 AUDIO
    INDEX 00 12:15:63
    INDEX 01 12:17:63
REM LEADOUT 15:24:14
